<mxfile host="Electron" modified="2024-05-08T14:38:14.094Z" agent="Mozilla/5.0 (X11; Linux x86_64) AppleWebKit/537.36 (KHTML, like Gecko) draw.io/24.2.5 Chrome/120.0.6099.109 Electron/28.1.0 Safari/537.36" etag="KJgHoIwRbLTtPCjrXGrz" version="24.2.5" type="device">
  <diagram name="Page-1" id="qtndvdY0BhcislFtmAf8">
    <mxGraphModel dx="1434" dy="774" grid="1" gridSize="10" guides="1" tooltips="1" connect="1" arrows="1" fold="1" page="1" pageScale="1" pageWidth="1169" pageHeight="827" math="0" shadow="0">
      <root>
        <mxCell id="0" />
        <mxCell id="1" parent="0" />
        <mxCell id="miG4ghi_1PJreFvNEF0v-1" value="&lt;font style=&quot;font-size: 27px;&quot; face=&quot;Helvetica&quot;&gt;&lt;b&gt;User&lt;/b&gt;&lt;/font&gt;" style="swimlane;childLayout=stackLayout;horizontal=1;startSize=50;horizontalStack=0;rounded=1;fontSize=14;fontStyle=0;strokeWidth=2;resizeParent=0;resizeLast=1;shadow=0;dashed=0;align=center;arcSize=4;whiteSpace=wrap;html=1;fillColor=#d80073;fontColor=#ffffff;strokeColor=#A50040;" parent="1" vertex="1">
          <mxGeometry x="505" y="259" width="175" height="321" as="geometry">
            <mxRectangle x="505" y="259" width="100" height="50" as="alternateBounds" />
          </mxGeometry>
        </mxCell>
        <mxCell id="miG4ghi_1PJreFvNEF0v-2" value="&lt;font style=&quot;font-size: 17px;&quot;&gt;+ userId&lt;br&gt;+ firstName&lt;br&gt;+ lastName&lt;/font&gt;&lt;div style=&quot;font-size: 17px;&quot;&gt;&lt;font style=&quot;font-size: 17px;&quot;&gt;+ email&lt;/font&gt;&lt;/div&gt;&lt;div style=&quot;font-size: 17px;&quot;&gt;&lt;font style=&quot;font-size: 17px;&quot;&gt;+ password&lt;/font&gt;&lt;/div&gt;&lt;div style=&quot;font-size: 17px;&quot;&gt;&lt;font style=&quot;font-size: 17px;&quot;&gt;+ birthDate&lt;/font&gt;&lt;/div&gt;&lt;div style=&quot;font-size: 17px;&quot;&gt;&lt;font style=&quot;font-size: 17px;&quot;&gt;+ registerDate&lt;/font&gt;&lt;/div&gt;&lt;div style=&quot;font-size: 17px;&quot;&gt;&lt;font style=&quot;font-size: 17px;&quot;&gt;+ &lt;b&gt;&lt;font color=&quot;#99ff33&quot;&gt;payments&lt;/font&gt;&lt;/b&gt;&lt;/font&gt;&lt;/div&gt;&lt;div style=&quot;font-size: 17px;&quot;&gt;&lt;font style=&quot;font-size: 17px;&quot;&gt;+ &lt;b&gt;&lt;font color=&quot;#66b2ff&quot;&gt;sickNotes&lt;/font&gt;&lt;/b&gt;&lt;/font&gt;&lt;/div&gt;&lt;div style=&quot;font-size: 17px;&quot;&gt;&lt;font style=&quot;font-size: 17px;&quot;&gt;+ &lt;b&gt;&lt;font color=&quot;#cc99ff&quot;&gt;role&lt;/font&gt;&lt;/b&gt;&lt;/font&gt;&lt;/div&gt;&lt;div style=&quot;font-size: 17px;&quot;&gt;&lt;font style=&quot;font-size: 17px;&quot;&gt;+ &lt;font color=&quot;#ffff66&quot;&gt;&lt;b&gt;confirmation&lt;/b&gt;&lt;/font&gt;&lt;b&gt;&lt;font color=&quot;#ffff66&quot;&gt;Email&lt;/font&gt;&lt;/b&gt;&lt;/font&gt;&lt;/div&gt;&lt;div style=&quot;font-size: 17px;&quot;&gt;&lt;font style=&quot;font-size: 17px;&quot;&gt;+ isEnabled&lt;/font&gt;&lt;/div&gt;&lt;div style=&quot;font-size: 17px;&quot;&gt;&lt;font style=&quot;font-size: 17px;&quot;&gt;+ isAccountLocked&lt;/font&gt;&lt;/div&gt;" style="align=left;strokeColor=none;fillColor=none;spacingLeft=4;fontSize=12;verticalAlign=top;resizable=0;rotatable=0;part=1;html=1;" parent="miG4ghi_1PJreFvNEF0v-1" vertex="1">
          <mxGeometry y="50" width="175" height="271" as="geometry" />
        </mxCell>
        <mxCell id="miG4ghi_1PJreFvNEF0v-4" value="&lt;font style=&quot;font-size: 27px;&quot; face=&quot;Helvetica&quot;&gt;&lt;b&gt;Role&lt;/b&gt;&lt;/font&gt;" style="swimlane;childLayout=stackLayout;horizontal=1;startSize=50;horizontalStack=0;rounded=1;fontSize=14;fontStyle=0;strokeWidth=2;resizeParent=0;resizeLast=1;shadow=0;dashed=0;align=center;arcSize=4;whiteSpace=wrap;html=1;fillColor=#76608a;fontColor=#ffffff;strokeColor=#432D57;" parent="1" vertex="1">
          <mxGeometry x="170" y="470" width="180" height="180" as="geometry" />
        </mxCell>
        <mxCell id="miG4ghi_1PJreFvNEF0v-5" value="&lt;font style=&quot;font-size: 17px;&quot;&gt;+ roleId&lt;br&gt;+ roleName&lt;br&gt;+ maxNumberOfUsers&lt;/font&gt;&lt;div style=&quot;font-size: 17px;&quot;&gt;&lt;font style=&quot;font-size: 17px;&quot;&gt;+ salary&lt;/font&gt;&lt;/div&gt;&lt;div style=&quot;font-size: 17px;&quot;&gt;&lt;font style=&quot;font-size: 17px;&quot;&gt;+ permissions&lt;/font&gt;&lt;/div&gt;&lt;div style=&quot;font-size: 17px;&quot;&gt;&lt;font style=&quot;font-size: 17px;&quot;&gt;+ users&lt;/font&gt;&lt;/div&gt;" style="align=left;strokeColor=none;fillColor=none;spacingLeft=4;fontSize=12;verticalAlign=top;resizable=0;rotatable=0;part=1;html=1;" parent="miG4ghi_1PJreFvNEF0v-4" vertex="1">
          <mxGeometry y="50" width="180" height="130" as="geometry" />
        </mxCell>
        <mxCell id="miG4ghi_1PJreFvNEF0v-6" value="&lt;font style=&quot;font-size: 27px;&quot; face=&quot;Helvetica&quot;&gt;&lt;b&gt;Sick Note&lt;/b&gt;&lt;/font&gt;" style="swimlane;childLayout=stackLayout;horizontal=1;startSize=50;horizontalStack=0;rounded=1;fontSize=14;fontStyle=0;strokeWidth=2;resizeParent=0;resizeLast=1;shadow=0;dashed=0;align=center;arcSize=4;whiteSpace=wrap;html=1;fillColor=#1ba1e2;fontColor=#ffffff;strokeColor=#006EAF;" parent="1" vertex="1">
          <mxGeometry x="810" y="150" width="180" height="120" as="geometry" />
        </mxCell>
        <mxCell id="miG4ghi_1PJreFvNEF0v-7" value="&lt;font style=&quot;font-size: 17px;&quot;&gt;+ sickNoteId&lt;br&gt;+ sickNoteName&lt;br&gt;+ user&lt;/font&gt;" style="align=left;strokeColor=none;fillColor=none;spacingLeft=4;fontSize=12;verticalAlign=top;resizable=0;rotatable=0;part=1;html=1;" parent="miG4ghi_1PJreFvNEF0v-6" vertex="1">
          <mxGeometry y="50" width="180" height="70" as="geometry" />
        </mxCell>
        <mxCell id="miG4ghi_1PJreFvNEF0v-8" value="&lt;font style=&quot;font-size: 27px;&quot; face=&quot;Helvetica&quot;&gt;&lt;b&gt;Payment&lt;/b&gt;&lt;/font&gt;" style="swimlane;childLayout=stackLayout;horizontal=1;startSize=50;horizontalStack=0;rounded=1;fontSize=14;fontStyle=0;strokeWidth=2;resizeParent=0;resizeLast=1;shadow=0;dashed=0;align=center;arcSize=4;whiteSpace=wrap;html=1;fillColor=#60a917;fontColor=#ffffff;strokeColor=#2D7600;" parent="1" vertex="1">
          <mxGeometry x="70" y="220" width="180" height="120" as="geometry" />
        </mxCell>
        <mxCell id="miG4ghi_1PJreFvNEF0v-9" value="&lt;font style=&quot;font-size: 17px;&quot;&gt;+ paymentId&lt;br&gt;+ amount&lt;br&gt;+ user&lt;/font&gt;" style="align=left;strokeColor=none;fillColor=none;spacingLeft=4;fontSize=12;verticalAlign=top;resizable=0;rotatable=0;part=1;html=1;" parent="miG4ghi_1PJreFvNEF0v-8" vertex="1">
          <mxGeometry y="50" width="180" height="70" as="geometry" />
        </mxCell>
        <mxCell id="miG4ghi_1PJreFvNEF0v-10" value="&lt;font size=&quot;1&quot; style=&quot;&quot; face=&quot;Helvetica&quot;&gt;&lt;b style=&quot;font-size: 22px;&quot;&gt;Confirmation email&lt;/b&gt;&lt;/font&gt;" style="swimlane;childLayout=stackLayout;horizontal=1;startSize=50;horizontalStack=0;rounded=1;fontSize=14;fontStyle=0;strokeWidth=2;resizeParent=0;resizeLast=1;shadow=0;dashed=0;align=center;arcSize=4;whiteSpace=wrap;html=1;fillColor=#e3c800;fontColor=#000000;strokeColor=#B09500;" parent="1" vertex="1">
          <mxGeometry x="910" y="590" width="180" height="140" as="geometry" />
        </mxCell>
        <mxCell id="miG4ghi_1PJreFvNEF0v-11" value="&lt;div&gt;&lt;font style=&quot;font-size: 17px;&quot;&gt;+ emailId&lt;/font&gt;&lt;/div&gt;&lt;font style=&quot;font-size: 17px;&quot;&gt;+ emailType&lt;br&gt;+ confirmationCode&lt;br&gt;&lt;/font&gt;&lt;div style=&quot;font-size: 17px;&quot;&gt;&lt;font style=&quot;font-size: 17px;&quot;&gt;+ user&lt;/font&gt;&lt;/div&gt;" style="align=left;strokeColor=none;fillColor=none;spacingLeft=4;fontSize=12;verticalAlign=top;resizable=0;rotatable=0;part=1;html=1;" parent="miG4ghi_1PJreFvNEF0v-10" vertex="1">
          <mxGeometry y="50" width="180" height="90" as="geometry" />
        </mxCell>
        <mxCell id="miG4ghi_1PJreFvNEF0v-12" value="" style="edgeStyle=entityRelationEdgeStyle;fontSize=12;html=1;endArrow=ERmandOne;startArrow=ERmandOne;rounded=0;" parent="1" source="miG4ghi_1PJreFvNEF0v-5" edge="1">
          <mxGeometry width="100" height="100" relative="1" as="geometry">
            <mxPoint x="480" y="450" as="sourcePoint" />
            <mxPoint x="500" y="510" as="targetPoint" />
            <Array as="points">
              <mxPoint x="360" y="200" />
            </Array>
          </mxGeometry>
        </mxCell>
        <mxCell id="miG4ghi_1PJreFvNEF0v-14" value="" style="edgeStyle=entityRelationEdgeStyle;fontSize=12;html=1;endArrow=ERmany;rounded=0;exitX=-0.012;exitY=0.612;exitDx=0;exitDy=0;exitPerimeter=0;" parent="1" source="miG4ghi_1PJreFvNEF0v-2" target="miG4ghi_1PJreFvNEF0v-9" edge="1">
          <mxGeometry width="100" height="100" relative="1" as="geometry">
            <mxPoint x="674" y="500" as="sourcePoint" />
            <mxPoint x="820" y="245" as="targetPoint" />
          </mxGeometry>
        </mxCell>
        <mxCell id="miG4ghi_1PJreFvNEF0v-15" value="" style="edgeStyle=entityRelationEdgeStyle;fontSize=12;html=1;endArrow=ERmandOne;startArrow=ERmandOne;rounded=0;" parent="1" target="miG4ghi_1PJreFvNEF0v-11" edge="1">
          <mxGeometry width="100" height="100" relative="1" as="geometry">
            <mxPoint x="680" y="531" as="sourcePoint" />
            <mxPoint x="580" y="430" as="targetPoint" />
          </mxGeometry>
        </mxCell>
        <mxCell id="miG4ghi_1PJreFvNEF0v-16" value="" style="edgeStyle=entityRelationEdgeStyle;fontSize=12;html=1;endArrow=ERmany;rounded=0;exitX=0.988;exitY=0.668;exitDx=0;exitDy=0;exitPerimeter=0;" parent="1" source="miG4ghi_1PJreFvNEF0v-2" target="miG4ghi_1PJreFvNEF0v-7" edge="1">
          <mxGeometry width="100" height="100" relative="1" as="geometry">
            <mxPoint x="480" y="450" as="sourcePoint" />
            <mxPoint x="580" y="350" as="targetPoint" />
          </mxGeometry>
        </mxCell>
      </root>
    </mxGraphModel>
  </diagram>
</mxfile>
